<svg width="24" height="24" viewBox="0 0 24 24" fill="none" xmlns="http://www.w3.org/2000/svg">
<path d="M4 3.75004C4 3.02069 4.28974 2.3212 4.80547 1.80547C5.3212 1.28974 6.02069 1 6.75004 1L17.7502 1C18.4796 1 19.1791 1.28974 19.6948 1.80547C20.2105 2.3212 20.5003 3.02069 20.5003 3.75004V22.3128C20.5002 22.4372 20.4664 22.5592 20.4025 22.6659C20.3386 22.7726 20.2469 22.8599 20.1373 22.9186C20.0276 22.9773 19.9041 23.0052 19.7799 22.9992C19.6557 22.9933 19.5354 22.9537 19.4319 22.8849L13.199 19.5256C12.6067 19.2063 11.8936 19.2063 11.3013 19.5256L5.06839 22.8849C4.96486 22.9537 4.84458 22.9933 4.72036 22.9992C4.59614 23.0052 4.47264 22.9773 4.36301 22.9186C4.25337 22.8599 4.16171 22.7726 4.09778 22.6659C4.03386 22.5592 4.00006 22.4372 4 22.3128V3.75004ZM6.75004 2.37502C6.38537 2.37502 6.03562 2.51989 5.77776 2.77776C5.51989 3.03562 5.37502 3.38537 5.37502 3.75004V21.0286L11.8693 17.6158C11.9821 17.5407 12.1146 17.5006 12.2501 17.5006C12.3857 17.5006 12.5182 17.5407 12.631 17.6158L19.1252 21.0286V3.75004C19.1252 3.38537 18.9804 3.03562 18.7225 2.77776C18.4646 2.51989 18.1149 2.37502 17.7502 2.37502H6.75004Z" fill="#4788FF"/>
</svg>
