<svg width="30" height="30" viewBox="0 0 30 30" fill="none" xmlns="http://www.w3.org/2000/svg">
<path d="M30 15C30 18.9782 28.4196 22.7936 25.6066 25.6066C22.7936 28.4196 18.9782 30 15 30C11.0218 30 7.20644 28.4196 4.3934 25.6066C1.58035 22.7936 0 18.9782 0 15C0 11.0218 1.58035 7.20644 4.3934 4.3934C7.20644 1.58035 11.0218 0 15 0C18.9782 0 22.7936 1.58035 25.6066 4.3934C28.4196 7.20644 30 11.0218 30 15V15ZM22.5562 9.31875C22.4223 9.18528 22.2628 9.0802 22.0874 9.00978C21.9119 8.93936 21.724 8.90505 21.535 8.9089C21.3459 8.91275 21.1596 8.95468 20.9872 9.03219C20.8147 9.1097 20.6596 9.22119 20.5312 9.36L14.0194 17.6569L10.095 13.7306C9.82842 13.4822 9.47583 13.347 9.11152 13.3534C8.74721 13.3599 8.39961 13.5074 8.14196 13.7651C7.88431 14.0227 7.73673 14.3703 7.7303 14.7346C7.72387 15.099 7.8591 15.4515 8.1075 15.7181L13.0687 20.6812C13.2024 20.8147 13.3616 20.9198 13.5367 20.9904C13.7119 21.0609 13.8995 21.0955 14.0883 21.092C14.2771 21.0885 14.4633 21.047 14.6357 20.97C14.8081 20.893 14.9633 20.782 15.0919 20.6438L22.5769 11.2875C22.8321 11.0222 22.973 10.6674 22.9695 10.2993C22.966 9.9312 22.8183 9.57916 22.5581 9.31875H22.5562Z" fill="#9C9C9C"/>
</svg>
