<svg width="30" height="30" viewBox="0 0 30 30" fill="none" xmlns="http://www.w3.org/2000/svg">
<g clip-path="url(#clip0_6_123)">
<path fill-rule="evenodd" clip-rule="evenodd" d="M6 2C5.46957 2 4.96086 2.21071 4.58579 2.58579C4.21071 2.96086 4 3.46957 4 4V26C4 26.5304 4.21071 27.0391 4.58579 27.4142C4.96086 27.7893 5.46957 28 6 28H21C21.2652 28 21.5196 27.8946 21.7071 27.7071C21.8946 27.5196 22 27.2652 22 27C22 26.7348 21.8946 26.4804 21.7071 26.2929C21.5196 26.1054 21.2652 26 21 26H6V4H21C21.2652 4 21.5196 3.89464 21.7071 3.70711C21.8946 3.51957 22 3.26522 22 3C22 2.73478 21.8946 2.48043 21.7071 2.29289C21.5196 2.10536 21.2652 2 21 2H6ZM25.208 9.792C25.0202 9.60423 24.7656 9.49874 24.5 9.49874C24.2345 9.49874 23.9798 9.60423 23.792 9.792C23.6042 9.97977 23.4987 10.2344 23.4987 10.5C23.4987 10.7656 23.6042 11.0202 23.792 11.208L26.586 14H13C12.7348 14 12.4804 14.1054 12.2929 14.2929C12.1054 14.4804 12 14.7348 12 15C12 15.2652 12.1054 15.5196 12.2929 15.7071C12.4804 15.8946 12.7348 16 13 16H26.586L23.792 18.792C23.6042 18.9798 23.4987 19.2344 23.4987 19.5C23.4987 19.7656 23.6042 20.0202 23.792 20.208C23.9798 20.3958 24.2345 20.5013 24.5 20.5013C24.7656 20.5013 25.0202 20.3958 25.208 20.208L29.708 15.708C29.8011 15.6151 29.875 15.5048 29.9254 15.3833C29.9758 15.2618 30.0018 15.1315 30.0018 15C30.0018 14.8685 29.9758 14.7382 29.9254 14.6167C29.875 14.4952 29.8011 14.3849 29.708 14.292L25.208 9.792Z" fill="#FFA3A3"/>
</g>
<defs>
<clipPath id="clip0_6_123">
<rect width="30" height="30" fill="white"/>
</clipPath>
</defs>
</svg>
