<svg width="30" height="30" viewBox="0 0 30 30" fill="none" xmlns="http://www.w3.org/2000/svg">
<g clip-path="url(#clip0_113_204)">
<path d="M30 15C30 11.0218 28.4196 7.20644 25.6066 4.3934C22.7936 1.58035 18.9782 0 15 0C11.0218 0 7.20644 1.58035 4.3934 4.3934C1.58035 7.20644 0 11.0218 0 15C0 18.9782 1.58035 22.7936 4.3934 25.6066C7.20644 28.4196 11.0218 30 15 30C18.9782 30 22.7936 28.4196 25.6066 25.6066C28.4196 22.7936 30 18.9782 30 15ZM15.9375 21.5625C15.9375 21.8111 15.8387 22.0496 15.6629 22.2254C15.4871 22.4012 15.2486 22.5 15 22.5C14.7514 22.5 14.5129 22.4012 14.3371 22.2254C14.1613 22.0496 14.0625 21.8111 14.0625 21.5625V10.7006L10.0388 14.7263C9.86271 14.9023 9.62395 15.0012 9.375 15.0012C9.12605 15.0012 8.88729 14.9023 8.71125 14.7263C8.53521 14.5502 8.43632 14.3115 8.43632 14.0625C8.43632 13.8135 8.53521 13.5748 8.71125 13.3987L14.3362 7.77375C14.4233 7.68644 14.5268 7.61718 14.6407 7.56991C14.7546 7.52265 14.8767 7.49832 15 7.49832C15.1233 7.49832 15.2454 7.52265 15.3593 7.56991C15.4732 7.61718 15.5767 7.68644 15.6638 7.77375L21.2888 13.3987C21.4648 13.5748 21.5637 13.8135 21.5637 14.0625C21.5637 14.3115 21.4648 14.5502 21.2888 14.7263C21.1127 14.9023 20.874 15.0012 20.625 15.0012C20.376 15.0012 20.1373 14.9023 19.9612 14.7263L15.9375 10.7006V21.5625Z" fill="#9C9C9C"/>
</g>
<defs>
<clipPath id="clip0_113_204">
<rect width="30" height="30" fill="white"/>
</clipPath>
</defs>
</svg>
