<svg width="24" height="24" viewBox="0 0 24 24" fill="none" xmlns="http://www.w3.org/2000/svg">
    <path d="M12 6.99999C14.1217 6.99999 16.1566 7.84285 17.6569 9.34314C19.1571 10.8434 20 12.8783 20 15C20 17.1217 19.1571 19.1566 17.6569 20.6568C16.1566 22.1571 14.1217 23 12 23C9.87827 23 7.84344 22.1571 6.34315 20.6568C4.84285 19.1566 4 17.1217 4 15C4 12.8783 4.84285 10.8434 6.34315 9.34314C7.84344 7.84285 9.87827 6.99999 12 6.99999V6.99999ZM12 10.5L10.677 13.18L7.72 13.61L9.86 15.695L9.355 18.641L12 17.25L14.645 18.64L14.14 15.695L16.28 13.609L13.323 13.179L12 10.5ZM13 1.99899L18 1.99999V4.99999L16.637 6.13799C15.5059 5.54458 14.2711 5.17483 13 5.04899V1.99999V1.99899ZM11 1.99899V5.04899C9.72935 5.17464 8.49482 5.54405 7.364 6.13699L6 4.99999V1.99999L11 1.99899V1.99899Z" fill="#9C9C9C" id="icon"/>
</svg>