<svg width="24" height="24" viewBox="0 0 24 24" fill="none" xmlns="http://www.w3.org/2000/svg">
<path d="M11.625 12C14.6629 12 17.125 9.53789 17.125 6.5C17.125 3.46211 14.6629 1 11.625 1C8.58711 1 6.125 3.46211 6.125 6.5C6.125 9.53789 8.58711 12 11.625 12ZM15.475 13.375H14.7574C13.8035 13.8133 12.7422 14.0625 11.625 14.0625C10.5078 14.0625 9.45078 13.8133 8.49258 13.375H7.775C4.58672 13.375 2 15.9617 2 19.15V20.9375C2 22.0762 2.92383 23 4.0625 23H19.1875C20.3262 23 21.25 22.0762 21.25 20.9375V19.15C21.25 15.9617 18.6633 13.375 15.475 13.375Z" fill="#9C9C9C"/>
</svg>
