<svg width="32" height="32" viewBox="0 0 32 32" fill="none" xmlns="http://www.w3.org/2000/svg">
<path d="M16 14.9067C20.4 10.9067 22.6667 8.85341 22.6667 6.25341C22.6667 4.25341 21 2.66675 19 2.66675C17.8534 2.66675 16.76 3.14675 16 4.00008C15.24 3.14675 14.1467 2.66675 12.92 2.66675C10.92 2.66675 9.33335 4.33341 9.33335 6.33341C9.33335 8.85341 11.6 10.9067 16 14.9067ZM14.9067 16.0001C10.9067 11.6001 8.85335 9.33341 6.25335 9.33341C4.25335 9.33341 2.66669 11.0001 2.66669 13.0001C2.66669 14.1467 3.14669 15.2401 4.00002 16.0001C3.14669 16.7601 2.66669 17.8534 2.66669 19.0801C2.66669 21.0801 4.33335 22.6667 6.33335 22.6667C8.85335 22.6667 10.9067 20.4001 14.9067 16.0001ZM17.1067 16.0001C21.0934 20.4001 23.1467 22.6667 25.7467 22.6667C27.7467 22.6667 29.3334 21.0001 29.3334 19.0001C29.3334 17.8534 28.8534 16.7601 28 16.0001C28.8534 15.2401 29.3334 14.1467 29.3334 12.9201C29.3334 10.9201 27.6667 9.33341 25.6667 9.33341C23.1467 9.33341 21.0934 11.6001 17.1067 16.0001ZM16 17.0934C11.6 21.0934 9.33335 23.1467 9.33335 25.7467C9.33335 27.7467 11 29.3334 13 29.3334C14.1467 29.3334 15.24 28.8534 16 28.0001C16.76 28.8534 17.8534 29.3334 19.08 29.3334C21.08 29.3334 22.6667 27.6667 22.6667 25.6667C22.6667 23.1467 20.4 21.0934 16 17.0934Z" fill="white"/>
</svg>
