<svg width="32" height="26" viewBox="0 0 32 26" fill="none" xmlns="http://www.w3.org/2000/svg">
<g clip-path="url(#clip0_241_343)">
<path d="M22.3551 11.2C22.3551 10.572 22.116 9.9435 21.6376 9.462L12.8926 0.717C12.4551 0.2393 11.8251 0 11.1551 0C10.5701 0 9.94505 0.2393 9.46005 0.7175L0.71755 9.46C0.2392 9.945 0 10.57 0 11.155C0 11.783 0.23925 12.4135 0.7175 12.895L9.4625 21.64C9.94375 22.1181 10.572 22.3575 11.2 22.3575C11.828 22.3575 12.4565 22.1183 12.9375 21.64L21.6825 12.895C22.1601 12.455 22.3551 11.83 22.3551 11.2V11.2ZM4.80005 12.4C4.13755 12.4 3.64505 11.8625 3.64505 11.245C3.64505 10.6275 4.18255 10.09 4.80005 10.09C5.41755 10.09 6.00005 10.54 6.00005 11.2C6.00005 11.86 5.46505 12.4 4.80005 12.4ZM11.2001 18.8C10.5376 18.8 10.0451 18.2625 10.0451 17.645C10.0451 17.0275 10.5826 16.49 11.2001 16.49C11.8176 16.49 12.3551 17.0275 12.3551 17.645C12.3551 18.2625 11.8651 18.8 11.2001 18.8ZM11.2001 12.4C10.5376 12.4 10.0451 11.8625 10.0451 11.245C10.0451 10.6275 10.5826 10.09 11.2001 10.09C11.8176 10.09 12.4001 10.54 12.4001 11.2C12.4001 11.86 11.8651 12.4 11.2001 12.4ZM11.2001 6C10.5376 6 10.0451 5.4625 10.0451 4.845C10.0451 4.2275 10.5826 3.69 11.2001 3.69C11.8176 3.69 12.3551 4.2275 12.3551 4.845C12.3551 5.4625 11.8651 6 11.2001 6ZM17.6001 12.4C16.9376 12.4 16.4451 11.8625 16.4451 11.245C16.4451 10.6275 16.9826 10.09 17.6001 10.09C18.2176 10.09 18.7551 10.6275 18.7551 11.245C18.7551 11.8625 18.2651 12.4 17.6001 12.4ZM29.555 9.6H23.6201C23.841 10.1135 23.9503 10.6625 23.9503 11.2115C23.9503 12.2465 23.557 13.2805 22.7688 14.0685L15.9588 20.8785V23.197C16.0001 24.525 17.0751 25.6 18.4001 25.6H29.555C30.88 25.6 31.91 24.525 31.91 23.245V12C31.955 10.675 30.925 9.6 29.555 9.6ZM23.9551 18.8C23.2926 18.8 22.8001 18.2625 22.8001 17.645C22.8001 17.0275 23.3376 16.49 23.9551 16.49C24.5726 16.49 25.1101 17.0275 25.1101 17.645C25.1101 18.2625 24.6601 18.8 23.9551 18.8Z" fill="white"/>
</g>
<defs>
<clipPath id="clip0_241_343">
<rect width="32" height="25.6" fill="white"/>
</clipPath>
</defs>
</svg>
