<svg width="27" height="27" viewBox="0 0 27 27" fill="none" xmlns="http://www.w3.org/2000/svg">
<path fill-rule="evenodd" clip-rule="evenodd" d="M13.5 0C6.04688 0 0 6.04688 0 13.5C0 20.9531 6.04688 27 13.5 27C20.9385 27 27 20.9531 27 13.5C27 6.04688 20.9385 0 13.5 0ZM22.4168 6.22238C24.0789 8.24663 24.9987 10.7785 25.0234 13.3976C24.6431 13.3245 20.8361 12.5482 16.9999 13.032C16.911 12.8407 16.8379 12.636 16.7501 12.4313C16.5115 11.8681 16.2579 11.3114 15.9896 10.7617C20.2354 9.03375 22.1681 6.54525 22.4168 6.22238V6.22238ZM13.5 1.99238C16.4284 1.99238 19.1081 3.08925 21.1433 4.89038C20.9385 5.18288 19.1959 7.51163 15.0964 9.04838C13.2064 5.57888 11.1139 2.73712 10.791 2.29837C11.679 2.09102 12.5881 1.98795 13.5 1.99125V1.99238ZM8.595 3.07463C8.90212 3.48525 10.9519 6.3405 12.87 9.73687C7.48125 11.1724 2.7225 11.1431 2.21063 11.1431C2.95763 7.57012 5.37412 4.59788 8.595 3.07463ZM1.962 13.5146V13.1636C2.46037 13.1783 8.05275 13.2514 13.8083 11.5234C14.1446 12.168 14.4517 12.8261 14.7442 13.4854C14.598 13.5293 14.4371 13.5731 14.2909 13.617C8.34638 15.5351 5.18288 20.7765 4.91963 21.2164C3.01546 19.1031 1.96178 16.3592 1.962 13.5146V13.5146ZM13.5 25.038C10.9373 25.042 8.44722 24.1864 6.42825 22.608C6.633 22.1828 8.97525 17.6726 15.4766 15.4035C15.5059 15.3889 15.5216 15.3889 15.5497 15.3743C17.1754 19.5761 17.8335 23.1053 18.0101 24.1155C16.6185 24.7163 15.0964 25.038 13.5 25.038ZM19.9283 23.0614C19.8113 22.3583 19.1959 18.9911 17.6873 14.8466C21.3041 14.2762 24.4665 15.2134 24.8625 15.345C24.3641 18.5513 22.5191 21.3188 19.9283 23.0614Z" fill="black"/>
</svg>
