<svg width="32" height="32" viewBox="0 0 32 32" fill="none" xmlns="http://www.w3.org/2000/svg">
<path d="M25.8666 9.78672L22.2132 6.13339C21.7364 5.68552 21.1116 5.42853 20.4577 5.41132C19.8037 5.39412 19.1663 5.61788 18.6666 6.04005L6.66657 18.0401C6.23559 18.4747 5.96725 19.0443 5.90657 19.6534L5.33324 25.2134C5.31528 25.4087 5.34062 25.6055 5.40746 25.7899C5.47429 25.9743 5.58098 26.1416 5.71991 26.2801C5.84449 26.4036 5.99225 26.5014 6.1547 26.5677C6.31715 26.6341 6.4911 26.6677 6.66657 26.6667H6.78657L12.3466 26.1601C12.9556 26.0994 13.5253 25.831 13.9599 25.4001L25.9599 13.4001C26.4257 12.908 26.6774 12.2514 26.6599 11.5741C26.6424 10.8968 26.3571 10.2541 25.8666 9.78672V9.78672ZM12.1066 23.4934L8.10657 23.8667L8.46657 19.8667L15.9999 12.4267L19.5999 16.0267L12.1066 23.4934ZM21.3332 14.2401L17.7599 10.6667L20.3599 8.00005L23.9999 11.6401L21.3332 14.2401Z" fill="black"/>
</svg>
