<svg width="27" height="27" viewBox="0 0 27 27" fill="none" xmlns="http://www.w3.org/2000/svg">
<path d="M7.90201 2.59873C8.74685 2.88492 9.55056 3.28053 10.2926 3.77548C11.3407 3.50763 12.4183 3.37306 13.5 3.37498C14.6171 3.37498 15.6949 3.51448 16.7051 3.77435C17.4469 3.27989 18.2503 2.88466 19.0946 2.59873C19.8788 2.3321 20.9959 1.9001 21.6596 2.63473C22.1096 3.13423 22.2221 3.97123 22.302 4.61023C22.392 5.32348 22.4134 6.25273 22.1771 7.17523C23.0805 8.34185 23.625 9.73348 23.625 11.25C23.625 13.5472 22.3808 15.5419 20.5391 16.9234C19.6528 17.5798 18.6698 18.0945 17.6254 18.4489C17.8661 19.0001 18 19.6099 18 20.25V23.625C18 23.9233 17.8815 24.2095 17.6705 24.4205C17.4595 24.6315 17.1734 24.75 16.875 24.75H10.125C9.82665 24.75 9.5405 24.6315 9.32952 24.4205C9.11854 24.2095 9.00001 23.9233 9.00001 23.625V22.5101C7.92564 22.6417 7.02451 22.5247 6.25839 22.1996C5.45739 21.8599 4.89939 21.3334 4.47976 20.8294C4.08151 20.3524 3.64726 19.2769 3.01951 19.0676C2.87931 19.0209 2.74968 18.9471 2.63801 18.8503C2.52635 18.7535 2.43484 18.6357 2.36871 18.5035C2.23516 18.2366 2.2131 17.9276 2.30739 17.6445C2.40167 17.3613 2.60458 17.1272 2.87147 16.9937C3.13835 16.8601 3.44736 16.8381 3.73051 16.9324C4.47976 17.1821 4.96801 17.7221 5.30214 18.1564C5.84214 18.8539 6.28089 19.7651 7.13589 20.1285C7.48801 20.2781 8.00439 20.376 8.81214 20.2657L9.00001 20.2275C9.00216 19.6152 9.12966 19.0099 9.37464 18.4489C8.33017 18.0945 7.34718 17.5798 6.46089 16.9234C4.61926 15.5419 3.37501 13.5484 3.37501 11.25C3.37501 9.73573 3.91839 8.34523 4.81951 7.17973C4.58326 6.25723 4.60351 5.32573 4.69351 4.61135L4.69914 4.5686C4.78126 3.91385 4.87689 3.14323 5.33589 2.63473C5.99964 1.9001 7.11789 2.33323 7.90089 2.59985L7.90201 2.59873Z" fill="black"/>
</svg>
