<svg width="27" height="27" viewBox="0 0 27 27" fill="none" xmlns="http://www.w3.org/2000/svg">
<path fill-rule="evenodd" clip-rule="evenodd" d="M8.39813 1.19925C9.71775 1.1385 10.1385 1.125 13.5 1.125C16.8615 1.125 17.2823 1.13962 18.6008 1.19925C19.9193 1.25887 20.8192 1.46925 21.6067 1.77413C22.4314 2.08575 23.1795 2.57287 23.7982 3.20287C24.4282 3.8205 24.9143 4.5675 25.2248 5.39325C25.5308 6.18075 25.74 7.08075 25.8008 8.397C25.8615 9.71888 25.875 10.1396 25.875 13.5C25.875 16.8615 25.8604 17.2822 25.8008 18.6019C25.7411 19.9181 25.5308 20.8181 25.2248 21.6056C24.9142 22.4315 24.4274 23.1797 23.7982 23.7982C23.1795 24.4282 22.4314 24.9143 21.6067 25.2248C20.8192 25.5308 19.9192 25.74 18.603 25.8008C17.2822 25.8615 16.8615 25.875 13.5 25.875C10.1385 25.875 9.71775 25.8604 8.39813 25.8008C7.08188 25.7411 6.18188 25.5308 5.39438 25.2248C4.56854 24.9142 3.8203 24.4274 3.20175 23.7982C2.57218 23.1803 2.08498 22.4324 1.77413 21.6067C1.46925 20.8192 1.26 19.9192 1.19925 18.603C1.1385 17.2811 1.125 16.8604 1.125 13.5C1.125 10.1385 1.13962 9.71775 1.19925 8.39925C1.25887 7.08075 1.46925 6.18075 1.77413 5.39325C2.08544 4.56759 2.57301 3.81973 3.20287 3.20175C3.82055 2.57231 4.56803 2.08512 5.39325 1.77413C6.18075 1.46925 7.08075 1.26 8.397 1.19925H8.39813ZM18.5006 3.42675C17.1956 3.36713 16.8041 3.35475 13.5 3.35475C10.1959 3.35475 9.80437 3.36713 8.49937 3.42675C7.29225 3.48188 6.6375 3.68325 6.201 3.85312C5.62388 4.07812 5.211 4.34475 4.77788 4.77788C4.3673 5.17731 4.05133 5.66357 3.85312 6.201C3.68325 6.6375 3.48188 7.29225 3.42675 8.49937C3.36713 9.80437 3.35475 10.1959 3.35475 13.5C3.35475 16.8041 3.36713 17.1956 3.42675 18.5006C3.48188 19.7077 3.68325 20.3625 3.85312 20.799C4.05112 21.3356 4.36725 21.8228 4.77788 22.2221C5.17725 22.6328 5.66438 22.9489 6.201 23.1469C6.6375 23.3168 7.29225 23.5181 8.49937 23.5733C9.80437 23.6329 10.1948 23.6452 13.5 23.6452C16.8052 23.6452 17.1956 23.6329 18.5006 23.5733C19.7077 23.5181 20.3625 23.3168 20.799 23.1469C21.3761 22.9219 21.789 22.6553 22.2221 22.2221C22.6328 21.8228 22.9489 21.3356 23.1469 20.799C23.3168 20.3625 23.5181 19.7077 23.5733 18.5006C23.6329 17.1956 23.6452 16.8041 23.6452 13.5C23.6452 10.1959 23.6329 9.80437 23.5733 8.49937C23.5181 7.29225 23.3168 6.6375 23.1469 6.201C22.9219 5.62388 22.6553 5.211 22.2221 4.77788C21.8227 4.36733 21.3364 4.05136 20.799 3.85312C20.3625 3.68325 19.7077 3.48188 18.5006 3.42675V3.42675ZM11.9194 17.3149C12.8021 17.6823 13.7851 17.7319 14.7003 17.4552C15.6155 17.1784 16.4063 16.5925 16.9376 15.7975C17.4688 15.0025 17.7076 14.0477 17.6131 13.0962C17.5185 12.1448 17.0966 11.2556 16.4194 10.5806C15.9876 10.1492 15.4656 9.81879 14.8909 9.61329C14.3161 9.40779 13.703 9.33228 13.0956 9.39219C12.4881 9.4521 11.9015 9.64595 11.378 9.95977C10.8545 10.2736 10.4071 10.6996 10.068 11.2071C9.72884 11.7146 9.50646 12.291 9.41683 12.8947C9.3272 13.4985 9.37255 14.1146 9.54961 14.6987C9.72667 15.2828 10.031 15.8204 10.4408 16.2728C10.8506 16.7252 11.3556 17.0811 11.9194 17.3149ZM9.00225 9.00225C9.5929 8.4116 10.2941 7.94307 11.0658 7.62341C11.8376 7.30375 12.6647 7.13922 13.5 7.13922C14.3353 7.13922 15.1624 7.30375 15.9342 7.62341C16.7059 7.94307 17.4071 8.4116 17.9978 9.00225C18.5884 9.5929 19.0569 10.2941 19.3766 11.0658C19.6963 11.8376 19.8608 12.6647 19.8608 13.5C19.8608 14.3353 19.6963 15.1624 19.3766 15.9342C19.0569 16.7059 18.5884 17.4071 17.9978 17.9978C16.8049 19.1906 15.187 19.8608 13.5 19.8608C11.813 19.8608 10.1951 19.1906 9.00225 17.9978C7.80937 16.8049 7.13922 15.187 7.13922 13.5C7.13922 11.813 7.80937 10.1951 9.00225 9.00225V9.00225ZM21.2715 8.0865C21.4179 7.94843 21.535 7.78239 21.6161 7.59822C21.6971 7.41405 21.7404 7.21549 21.7433 7.0143C21.7463 6.8131 21.7088 6.61337 21.6332 6.42691C21.5575 6.24046 21.4452 6.07107 21.303 5.92879C21.1607 5.78651 20.9913 5.67423 20.8048 5.59858C20.6184 5.52294 20.4186 5.48547 20.2175 5.48841C20.0163 5.49134 19.8177 5.53461 19.6335 5.61566C19.4494 5.69671 19.2833 5.81388 19.1452 5.96025C18.8767 6.24491 18.7297 6.62301 18.7354 7.0143C18.7411 7.40558 18.8991 7.77924 19.1758 8.05595C19.4525 8.33266 19.8262 8.49063 20.2175 8.49634C20.6087 8.50204 20.9868 8.35503 21.2715 8.0865V8.0865Z" fill="black"/>
</svg>
