<svg width="40" height="40" viewBox="0 0 40 40" fill="none" xmlns="http://www.w3.org/2000/svg">
<path d="M28.3333 3.33334H21.6667V10.0983C24.0522 10.3606 26.3392 11.1947 28.3333 12.53V3.33334ZM18.3333 3.33334H11.6667V12.53C13.6608 11.1947 15.9478 10.3606 18.3333 10.0983V3.33334ZM20 36.6667C23.0942 36.6667 26.0617 35.4375 28.2496 33.2496C30.4375 31.0617 31.6667 28.0942 31.6667 25C31.6667 21.9058 30.4375 18.9384 28.2496 16.7504C26.0617 14.5625 23.0942 13.3333 20 13.3333C16.9058 13.3333 13.9384 14.5625 11.7504 16.7504C9.56251 18.9384 8.33334 21.9058 8.33334 25C8.33334 28.0942 9.56251 31.0617 11.7504 33.2496C13.9384 35.4375 16.9058 36.6667 20 36.6667ZM17.9583 22.4683L20 18.3333L22.0417 22.4683L26.605 23.13L23.3033 26.35L24.0833 30.895L20 28.75L15.9183 30.895L16.6983 26.35L13.3967 23.13L17.9583 22.4683Z" fill="#4788FF"/>
</svg>
