<svg width="24" height="24" viewBox="0 0 24 24" fill="none" xmlns="http://www.w3.org/2000/svg">
<path d="M5.65 2C5.47761 2 5.31228 2.06848 5.19038 2.19038C5.06848 2.31228 5 2.47761 5 2.65V13.7052C5 14.3948 5.27393 15.0561 5.76152 15.5437C6.24912 16.0313 6.91044 16.3052 7.6 16.3052H8.9052V20.2026C8.9052 20.8922 9.17913 21.5535 9.66672 22.0411C10.1543 22.5287 10.8156 22.8026 11.5052 22.8026C12.1948 22.8026 12.8561 22.5287 13.3437 22.0411C13.8313 21.5535 14.1052 20.8922 14.1052 20.2026V16.3052H15.4C16.0896 16.3052 16.7509 16.0313 17.2385 15.5437C17.7261 15.0561 18 14.3948 18 13.7052V2.6513C18 2.47891 17.9315 2.31358 17.8096 2.19168C17.6877 2.06978 17.5224 2.0013 17.35 2.0013H5.65V2ZM6.3 12.4052H16.7V13.7052C16.7 14.05 16.563 14.3806 16.3192 14.6244C16.0754 14.8682 15.7448 15.0052 15.4 15.0052H13.4552C13.2828 15.0052 13.1175 15.0737 12.9956 15.1956C12.8737 15.3175 12.8052 15.4828 12.8052 15.6552V20.2026C12.8052 20.5474 12.6682 20.878 12.4244 21.1218C12.1806 21.3656 11.85 21.5026 11.5052 21.5026C11.1604 21.5026 10.8298 21.3656 10.586 21.1218C10.3422 20.878 10.2052 20.5474 10.2052 20.2026V15.6552C10.2052 15.4828 10.1367 15.3175 10.0148 15.1956C9.89292 15.0737 9.72759 15.0052 9.5552 15.0052H7.6C7.25522 15.0052 6.92456 14.8682 6.68076 14.6244C6.43696 14.3806 6.3 14.05 6.3 13.7052V12.4052ZM16.7 11.1052H6.3V3.3013H11.5V5.2513C11.5 5.42369 11.5685 5.58902 11.6904 5.71092C11.8123 5.83282 11.9776 5.9013 12.15 5.9013C12.3224 5.9013 12.4877 5.83282 12.6096 5.71092C12.7315 5.58902 12.8 5.42369 12.8 5.2513V3.3013H14.1V6.5539C14.1 6.72629 14.1685 6.89162 14.2904 7.01352C14.4123 7.13542 14.5776 7.2039 14.75 7.2039C14.9224 7.2039 15.0877 7.13542 15.2096 7.01352C15.3315 6.89162 15.4 6.72629 15.4 6.5539V3.3013H16.7V11.1065V11.1052Z" fill="black"/>
</svg>
