<svg width="27" height="27" viewBox="0 0 27 27" fill="none" xmlns="http://www.w3.org/2000/svg">
<path d="M26.5984 5.55415C25.659 5.9704 24.6499 6.25165 23.589 6.37878C24.6836 5.72379 25.5026 4.69293 25.893 3.47853C24.8646 4.08939 23.739 4.51937 22.5653 4.74978C21.7759 3.907 20.7305 3.34839 19.5911 3.16068C18.4518 2.97298 17.2824 3.16667 16.2644 3.71168C15.2464 4.2567 14.4369 5.12256 13.9614 6.17482C13.486 7.22708 13.3712 8.40687 13.635 9.53103C11.5512 9.4264 9.51259 8.88477 7.65162 7.94129C5.79064 6.99782 4.14883 5.67358 2.83276 4.05453C2.38276 4.83078 2.12401 5.73078 2.12401 6.68928C2.12351 7.55215 2.336 8.4018 2.74263 9.16285C3.14925 9.9239 3.73744 10.5728 4.45501 11.052C3.62282 11.0255 2.809 10.8007 2.08126 10.3962V10.4636C2.08118 11.6739 2.4998 12.8468 3.26609 13.7835C4.03239 14.7202 5.09916 15.3629 6.28539 15.6027C5.51339 15.8116 4.70402 15.8424 3.91839 15.6927C4.25307 16.734 4.90501 17.6446 5.78293 18.2969C6.66084 18.9493 7.72079 19.3109 8.81439 19.3309C6.95795 20.7882 4.66526 21.5788 2.30514 21.5753C1.88707 21.5754 1.46935 21.551 1.05414 21.5022C3.4498 23.0425 6.23852 23.8599 9.08664 23.8568C18.7279 23.8568 23.9985 15.8715 23.9985 8.94603C23.9985 8.72103 23.9929 8.49378 23.9828 8.26878C25.008 7.52737 25.8929 6.60928 26.5961 5.55753L26.5984 5.55415V5.55415Z" fill="black"/>
</svg>
